<svg xmlns="http://www.w3.org/2000/svg" version="1.1" xmlns:xlink="http://www.w3.org/1999/xlink" xmlns:svgjs="http://svgjs.dev/svgjs" width="1000" height="1000" viewBox="0 0 1000 1000"><rect width="1000" height="1000" fill="#000000"></rect><g transform="matrix(0.7,0,0,0.7,149.84897959183667,150.19913061224486)"><svg viewBox="0 0 343 343" data-background-color="#99592a" preserveAspectRatio="xMidYMid meet" height="999" width="1000" xmlns="http://www.w3.org/2000/svg" xmlns:xlink="http://www.w3.org/1999/xlink"><g id="tight-bounds" transform="matrix(1,0,0,1,0.0740000000000407,0.07400000000001228)"><svg viewBox="0 0 342.85155851775386 342.85155851775386" height="342.85155851775386" width="342.85155851775386"><g><svg></svg></g><g><svg viewBox="0 0 342.85155851775386 342.85155851775386" height="342.85155851775386" width="342.85155851775386"><g><path d="M0 171.426c0-94.676 76.75-171.426 171.426-171.426 94.676 0 171.426 76.75 171.426 171.426 0 94.676-76.75 171.426-171.426 171.426-94.676 0-171.426-76.75-171.426-171.426zM171.426 334.083c89.833 0 162.657-72.824 162.657-162.657 0-89.833-72.824-162.657-162.657-162.658-89.833 0-162.657 72.824-162.658 162.658 0 89.833 72.824 162.657 162.658 162.657z" data-fill-palette-color="tertiary" fill="#ffffff" stroke="transparent"></path><ellipse rx="164.56874808852186" ry="164.56874808852186" cx="171.42577925887693" cy="171.42577925887693" fill="#ffffff" stroke="transparent" stroke-width="0" fill-opacity="1" data-fill-palette-color="tertiary"></ellipse></g><g transform="matrix(1,0,0,1,64.84655864529837,122.81069617198145)"><svg viewBox="0 0 213.1584412271571 97.23016617379096" height="97.23016617379096" width="213.1584412271571"><g><svg viewBox="0 0 213.1584412271571 97.23016617379096" height="97.23016617379096" width="213.1584412271571"><g><svg viewBox="0 0 213.15844122715714 97.23016617379098" height="97.23016617379096" width="213.1584412271571"><g><svg viewBox="0 0 213.15844122715714 97.23016617379098" height="97.23016617379098" width="213.15844122715714"><g id="textblocktransform"><svg viewBox="0 0 213.15844122715714 97.23016617379098" height="97.23016617379098" width="213.15844122715714" id="textblock"><g><svg viewBox="0 0 213.15844122715714 97.23016617379098" height="97.23016617379098" width="213.15844122715714"><g transform="matrix(1,0,0,1,0,0)"><svg width="213.15844122715714" viewBox="1.7999999523162842 -35.70000076293945 79.78999328613281 36.400001525878906" height="97.23016617379098" data-palette-color="#99592a"><path d="M11.8 0.7Q9.25 0.7 6.58 0.13 3.9-0.45 2.1-1.35L2.1-1.35 2.75-7.15Q7.5-4.35 12.25-4.35L12.25-4.35Q15.05-4.35 16.63-5.48 18.2-6.6 18.2-8.75L18.2-8.75Q18.2-11.05 16.57-12.5 14.95-13.95 10.85-15.75L10.85-15.75Q7.7-17.15 5.8-18.45 3.9-19.75 2.85-21.6 1.8-23.45 1.8-26.1L1.8-26.1Q1.8-28.95 3.25-31.13 4.7-33.3 7.33-34.5 9.95-35.7 13.45-35.7L13.45-35.7Q18.2-35.7 22.3-33.75L22.3-33.75 21.75-28.2Q17.3-30.65 13.05-30.65L13.05-30.65Q10.4-30.65 8.95-29.6 7.5-28.55 7.5-26.35L7.5-26.35Q7.5-24.8 8.35-23.75 9.2-22.7 10.6-21.93 12-21.15 15.1-19.7L15.1-19.7Q19.65-17.55 21.75-15.18 23.85-12.8 23.85-9.15L23.85-9.15Q23.85-4.6 20.65-1.95 17.45 0.7 11.8 0.7L11.8 0.7ZM32.55 0.5Q29.75 0.5 27.9-1.43 26.05-3.35 26.05-6.55L26.05-6.55Q26.05-9.85 28.05-11.85 30.05-13.85 32.82-14.7 35.6-15.55 38.2-15.6L38.2-15.6Q38.2-18.35 37.32-19.48 36.45-20.6 34.35-20.6L34.35-20.6Q31.45-20.6 28.4-18.5L28.4-18.5 27.9-22.75Q31.35-25.15 35.5-25.15L35.5-25.15Q39.4-25.15 41.37-22.9 43.35-20.65 43.35-15.7L43.35-15.7 43.35-8.4Q43.35-5.65 43.72-4.7 44.1-3.75 45.3-3.75L45.3-3.75 45.95-3.75 45.5 0.5 43.8 0.5Q40.2 0.5 38.9-2.8L38.9-2.8Q36.25 0.5 32.55 0.5L32.55 0.5ZM34.2-3.6Q35.3-3.6 36.35-4.3 37.4-5 38.25-6.25L38.25-6.25 38.25-12.05Q31.4-11.55 31.4-6.95L31.4-6.95Q31.4-3.6 34.2-3.6L34.2-3.6ZM73.45-25.15Q77.65-25.15 79.62-22.45 81.59-19.75 81.59-15L81.59-15 81.59 0 76.55 0 76.55-14.35Q76.55-17.65 75.59-19.23 74.65-20.8 72.4-20.8L72.4-20.8Q70.2-20.8 69.02-19.3 67.84-17.8 67.84-15L67.84-15 67.84 0 62.8 0 62.8-14.35Q62.8-17.6 61.82-19.2 60.84-20.8 58.84-20.8L58.84-20.8Q55.9-20.8 54.15-17.9L54.15-17.9 54.15 0 49.05 0 49.05-24.7 53.3-24.7 53.59-22.1Q54.7-23.55 56.34-24.35 58-25.15 60-25.15L60-25.15Q62.15-25.15 63.75-24.18 65.34-23.2 66.3-21.45L66.3-21.45Q67.34-23.2 69.17-24.18 71-25.15 73.45-25.15L73.45-25.15Z" opacity="1" transform="matrix(1,0,0,1,0,0)" fill="#000000" class="wordmark-text-0" data-fill-palette-color="quaternary" id="text-0"></path></svg></g></svg></g></svg></g></svg></g><g></g></svg></g></svg></g></svg></g></svg></g><defs></defs></svg><rect width="342.85155851775386" height="342.85155851775386" fill="none" stroke="none" visibility="hidden"></rect></g></svg></g></svg>